<?xml version="1.0" encoding="utf-8"?>
<!-- Generator: Adobe Illustrator 25.3.1, SVG Export Plug-In . SVG Version: 6.00 Build 0)  -->
<svg version="1.1" id="Layer_1" xmlns="http://www.w3.org/2000/svg" xmlns:xlink="http://www.w3.org/1999/xlink" x="0px" y="0px"
	 viewBox="0 0 667 108" style="enable-background:new 0 0 667 108;" xml:space="preserve">

<path class="st0" d="M309,55.4c-5.7-5.5-13.2-8.3-22.5-8.3c-9.3,0-16.7,2.9-22.6,8.7c-5.7,5.7-8.7,12.9-8.7,21.6
	c0,9.2,2.9,16.5,8.7,22.1c5.9,5.5,13.3,8.3,22.5,8.3c9,0,16.5-2.8,22.3-8.5c2.9-2.8,5.3-6.1,6.7-9.8c1.5-3.7,2.2-7.7,2.2-12.1
	C317.8,68.2,314.8,60.9,309,55.4z M299.4,90.8c-3.2,3.4-7.4,5.1-13.1,5.1c-4.9,0-9.4-1.7-12.8-5.2c-3.4-3.7-4.9-8.1-4.9-13.3
	c0-5.4,1.7-9.9,5-13.3c3.3-3.4,7.6-5.1,12.7-5.1c4.9,0,9.2,1.7,12.6,5.1c3.4,3.4,5,7.8,5,13.3C304.1,82.8,302.6,87.3,299.4,90.8z"/>
<path class="st0" d="M356.8,73.5h-16.6V60.1h19.2c1,0,1.7-0.7,1.7-1.7v-8.5c0-1-0.7-1.7-1.7-1.7h-30.3c-1,0-1.7,0.7-1.7,1.7v55.3
	c0,1,0.7,1.7,1.7,1.7h9.4c1,0,1.7-0.7,1.7-1.7V85.5h16.6c1,0,1.7-0.7,1.7-1.7v-8.5C358.5,74.2,357.7,73.5,356.8,73.5z"/>
<path class="st0" d="M384.8,60.1v45.2c0,1,0.7,1.7,1.7,1.7h9.4c1,0,1.7-0.7,1.7-1.7V60.1h16.2c1,0,1.7-0.7,1.7-1.7v-8.5
	c0-1-0.7-1.7-1.7-1.7h-45.2c-1,0-1.7,0.7-1.7,1.7v8.5c0,1,0.7,1.7,1.7,1.7H384.8L384.8,60.1z"/>
<path class="st0" d="M438,82.6c2.9,1.3,5.1,2.8,6.7,4.2c1.5,1.3,2.3,2.7,2.3,4.2c0,1.6-0.6,2.8-1.7,3.8c-1.1,0.9-2.6,1.3-4.4,1.3
	c-2.4,0-4.8-0.6-7.2-1.7c-1.7-0.9-3.2-1.8-4.4-3.1c-0.7-0.7-1.8-0.6-2.4,0.1l-5.3,6.3c-0.5,0.6-0.5,1.3-0.1,2c1.5,2.3,3.8,4.2,7,5.6
	c3.8,1.7,7.8,2.6,12.1,2.6c5.9,0,10.5-1.6,14.3-4.9c3.2-2.4,5.3-6,5.6-9.9c0.4-4-0.2-7.3-1.7-10.1c-1.2-2.3-2.7-4-4.4-5.2
	c-1.8-1.3-3.8-2.4-5.9-3.7c-2.2-1.1-4.2-2.1-6-2.8c-1.8-0.9-3.4-1.8-4.8-3.1c-1.2-1.2-2-2.7-2-4.4c0-1.5,0.6-2.7,1.7-3.5
	c1.2-0.9,2.8-1.2,4.6-1.2c2,0,3.5,0.2,4.9,0.9c0.9,0.4,1.7,1,2.7,1.7c0.7,0.6,1.8,0.5,2.4-0.4l4.9-6.8c0.5-0.7,0.4-1.7-0.2-2.2
	c-3.9-3.4-9.2-5.1-15.9-5.1c-5.7,0-10.3,1.6-13.7,4.9c-3.4,3.3-5.1,7.2-5.1,11.8c0,2.1,0.2,4,0.9,5.9c0.7,1.8,1.6,3.4,2.4,4.5
	c1,1.2,2.2,2.4,3.8,3.5c1.6,1.1,2.9,2.1,4.2,2.7C434.9,81.2,436.3,81.9,438,82.6z"/>
<path class="st0" d="M495.4,105.7l12.2-38.1l12.3,38.1c0.2,0.7,0.9,1.1,1.6,1.1h9.9c0.7,0,1.3-0.5,1.6-1.2l15.6-55.3
	c0.2-1.1-0.5-2.1-1.6-2.1h-8.8c-0.7,0-1.5,0.5-1.6,1.2l-10.1,37.5l-11.5-37.5c-0.2-0.7-0.9-1.2-1.6-1.2h-10.6
	c-0.7,0-1.3,0.5-1.6,1.2L490.2,87l-10-37.5c-0.2-0.7-0.9-1.2-1.6-1.2h-11c-1.1,0-2,1.1-1.6,2.1l16.4,55.3c0.2,0.7,0.9,1.2,1.6,1.2
	h9.9C494.6,106.8,495.2,106.3,495.4,105.7z"/>
<path class="st0" d="M559.9,106.8h9.4c1,0,1.7-0.7,1.7-1.7V49.8c0-1-0.7-1.7-1.7-1.7h-9.4c-1,0-1.7,0.7-1.7,1.7v55.3
	C558.3,106.1,559.1,106.8,559.9,106.8z"/>
<path class="st0" d="M598.9,82.6c2.9,1.3,5.1,2.8,6.7,4.2c1.5,1.3,2.3,2.7,2.3,4.2c0,1.6-0.6,2.8-1.7,3.8c-1.1,0.9-2.6,1.3-4.4,1.3
	c-2.4,0-4.8-0.6-7.2-1.7c-1.7-0.9-3.2-1.8-4.4-3.1c-0.7-0.7-1.8-0.6-2.4,0.1l-5.3,6.3c-0.5,0.6-0.5,1.3-0.1,2c1.5,2.3,3.8,4.2,7,5.6
	c3.8,1.7,7.8,2.6,12.1,2.6c5.9,0,10.5-1.6,14.3-4.9l0.6-0.5c3.2-3.1,5.1-7.2,5.1-11.5c0-3.1-0.6-5.7-1.8-7.9c-1.2-2.3-2.7-4-4.4-5.2
	c-1.8-1.3-3.8-2.4-5.9-3.7c-2.2-1.1-4.2-2.1-6-2.8c-1.8-0.9-3.4-1.8-4.8-3.1c-1.2-1.2-2-2.7-2-4.4c0-1.5,0.6-2.7,1.7-3.5
	c1.2-0.9,2.8-1.2,4.6-1.2c2,0,3.5,0.2,4.9,0.9c0.9,0.4,1.7,1,2.7,1.7c0.7,0.6,1.8,0.5,2.4-0.4l4.9-6.8c0.5-0.7,0.4-1.7-0.2-2.2
	c-3.9-3.4-9.2-5.1-15.9-5.1c-5.7,0-10.3,1.6-13.7,4.9c-3.4,3.3-5.1,7.2-5.1,11.8c0,2.1,0.2,4,0.9,5.9c0.7,1.8,1.6,3.4,2.4,4.5
	c1,1.2,2.2,2.4,3.8,3.5c1.6,1.1,2.9,2.1,4.2,2.7C595.7,81.2,597.2,81.9,598.9,82.6z"/>
<path class="st0" d="M644,82.6c2.9,1.3,5.1,2.8,6.7,4.2c1.5,1.3,2.3,2.7,2.3,4.2c0,1.6-0.6,2.8-1.7,3.8c-1.1,0.9-2.6,1.3-4.4,1.3
	c-2.4,0-4.8-0.6-7.2-1.7c-1.7-0.9-3.2-1.8-4.4-3.1c-0.7-0.7-1.8-0.6-2.4,0.1l-5.3,6.3c-0.5,0.6-0.5,1.3-0.1,2c1.5,2.3,3.8,4.2,7,5.6
	c3.8,1.7,7.8,2.6,12.1,2.6c5.9,0,10.5-1.6,14.3-4.9l0.6-0.5c3.2-3.1,5.1-7.2,5.1-11.5c0-3.1-0.6-5.7-1.8-7.9c-1.2-2.3-2.7-4-4.4-5.2
	c-1.8-1.3-3.8-2.4-5.9-3.7c-2.2-1.1-4.2-2.1-6-2.8c-1.8-0.9-3.4-1.8-4.8-3.1c-1.2-1.2-2-2.7-2-4.4c0-1.5,0.6-2.7,1.7-3.5
	c1.2-0.9,2.8-1.2,4.6-1.2c2,0,3.5,0.2,4.9,0.9c0.9,0.4,1.7,1,2.7,1.7c0.7,0.6,1.8,0.5,2.4-0.4l4.9-6.8c0.5-0.7,0.4-1.7-0.2-2.2
	c-3.9-3.4-9.2-5.1-15.9-5.1c-5.7,0-10.3,1.6-13.7,4.9c-3.4,3.3-5.1,7.2-5.1,11.8c0,2.1,0.2,4,0.9,5.9c0.7,1.8,1.6,3.4,2.4,4.5
	c1,1.2,2.2,2.4,3.8,3.5c1.6,1.1,2.9,2.1,4.2,2.7C640.8,81.2,642.3,81.9,644,82.6z"/>
<path class="st0" d="M225,82.6c2.9,1.3,5.1,2.8,6.7,4.2c1.5,1.3,2.3,2.7,2.3,4.2c0,1.6-0.6,2.8-1.7,3.8c-1.1,0.9-2.6,1.3-4.4,1.3
	c-2.4,0-4.8-0.6-7.2-1.7c-1.7-0.9-3.2-1.8-4.4-3.1c-0.7-0.7-1.8-0.6-2.4,0.1l-5.3,6.3c-0.5,0.6-0.5,1.3-0.1,2c1.5,2.3,3.8,4.2,7,5.6
	c3.8,1.7,7.8,2.6,12.1,2.6c5.9,0,10.5-1.6,14.3-4.9l0.5-0.5c3.2-3.1,5.1-7.2,5.3-11.6c0-3.1-0.6-5.7-1.8-8.1c-1.2-2.3-2.7-4-4.4-5.2
	c-1.8-1.3-3.8-2.4-5.9-3.7c-2.2-1.1-4.2-2.1-6-2.8c-1.8-0.9-3.4-1.8-4.8-3.1c-1.2-1.2-2-2.7-2-4.4c0-1.5,0.6-2.7,1.7-3.5
	c1.2-0.9,2.8-1.2,4.6-1.2c2,0,3.5,0.2,4.9,0.9c0.9,0.4,1.7,1,2.7,1.7c0.7,0.6,1.8,0.5,2.4-0.4l4.9-6.8c0.5-0.7,0.4-1.7-0.2-2.2
	c-3.9-3.4-9.2-5.1-15.9-5.1c-5.7,0-10.3,1.6-13.7,4.9c-3.4,3.3-5.1,7.2-5.1,11.8c0,2.1,0.2,4,0.9,5.9c0.7,1.8,1.6,3.4,2.4,4.5
	c1,1.2,2.2,2.4,3.8,3.5c1.6,1.1,2.9,2.1,4.2,2.7C221.8,81.2,223.2,81.9,225,82.6z"/>
<path class="st0" d="M77.8,67.2c-3.5-3.5-5.5-8.1-5.7-13.1L53.6,72.6L34.4,53.4l19.2-19.2l5.7,5.7c1.4,1.4,3.3,2.2,5.3,2.2
	c2,0,3.9-0.8,5.3-2.2l8.1-8.1c2.9-2.9,2.9-7.7,0-10.6L58.9,2.2C57.5,0.8,55.6,0,53.6,0c-2,0-3.9,0.8-5.3,2.2l-46.1,46
	c-2.9,2.9-2.9,7.7,0,10.6l46.1,46c1.4,1.4,3.3,2.2,5.3,2.2c2,0,3.9-0.8,5.3-2.2l32-31.9C85.9,72.7,81.3,70.7,77.8,67.2z"/>
<path class="st0" d="M180.9,58.8l-46.1,46c-1.4,1.4-3.3,2.2-5.3,2.2c-2,0-3.9-0.8-5.3-2.2l-19.1-19.1c-2.9-2.9-2.9-7.7,0-10.6
	l8.1-8.1c1.4-1.4,3.3-2.2,5.3-2.2s3.9,0.8,5.3,2.2l5.4,5.4l0.3,0.3l19.2-19.2l-19.2-19.2L100.9,63c-0.1,0.1-0.2,0.2-0.4,0.3
	c-2.4,2.3-5.6,3.6-9,3.6c-3.5,0-6.9-1.4-9.4-3.9c-2.5-2.5-3.9-5.8-3.9-9.4c0-3.4,1.2-6.6,3.6-9c0.1-0.1,0.2-0.2,0.3-0.3l0.1-0.1
	l0.2-0.1l41.8-41.7c1.4-1.4,3.3-2.2,5.3-2.2c2,0,3.9,0.8,5.3,2.2l46.1,46C183.7,51.1,183.7,55.8,180.9,58.8z"/>
<path class="st0" d="M220.7,19.6v9.9H214v-29c1.3,0,2.7,0,4.2,0c1.6,0,3.2,0,4.8,0c4.2,0,7.2,0.9,9.1,2.7c1.9,1.8,2.8,4.1,2.8,6.9
	c0,2.7-1,5-3,6.9c-2,1.9-4.6,2.8-7.9,2.8C222.6,19.8,221.5,19.7,220.7,19.6z M223.7,6.6c0,0-0.2,0-0.4,0c-0.2,0-0.6,0-1.1,0
	c-0.5,0-1,0-1.5,0v6.6c1.2,0.1,2.2,0.2,3.1,0.2c1.2,0,2.1-0.3,2.8-0.9c0.8-0.6,1.1-1.5,1.1-2.7C227.8,7.7,226.4,6.6,223.7,6.6z"/>
<path class="st0" d="M238.3,15c0-4.3,1.4-7.8,4.3-10.7C245.6,1.4,249.4,0,254,0c4.6,0,8.3,1.4,11.2,4.1c2.9,2.7,4.4,6.4,4.4,10.9
	c0,4.4-1.5,8-4.5,10.8c-2.9,2.8-6.7,4.2-11.2,4.2c-4.6,0-8.3-1.4-11.3-4.1C239.8,23.2,238.3,19.5,238.3,15z M245.5,15
	c0,2.5,0.8,4.5,2.5,6.3c1.6,1.7,3.6,2.5,6,2.5c2.7,0,4.8-0.8,6.3-2.4c1.5-1.7,2.2-3.8,2.2-6.3c0-2.6-0.8-4.7-2.4-6.3
	c-1.7-1.6-3.7-2.4-6.1-2.4c-2.5,0-4.5,0.8-6.1,2.4C246.3,10.3,245.5,12.4,245.5,15z"/>
<path class="st0" d="M306.7,0.5h6.5l-8.3,29h-6.4l-6.1-18.6l-6.1,18.6h-6.4l-8.7-29h7.6l5,18.3l5.5-18.3h6.8l5.7,18.3L306.7,0.5z"/>
<path class="st0" d="M335.4,29.5h-17.9v-29H335v6.2h-10.7v5.1h9.5V18h-9.5v5.3h11.2V29.5z"/>
<path class="st0" d="M349,19.4v10.2h-6.7v-29c1.6,0,3.4,0,5.3,0s3.5,0,4.7,0c7.3,0,10.9,3.1,10.9,9.3c0,4-1.7,6.8-5,8.4l8.6,11.4
	h-8.2l-7.2-10.2H349z M352,6.6c0,0-0.2,0-0.4,0c-0.2,0-0.6,0-1.1,0c-0.5,0-1,0-1.5,0v6.4h2.4c3.1,0,4.6-1.1,4.6-3.4
	C356.1,7.7,354.7,6.6,352,6.6z"/>
<path class="st0" d="M389,29.5h-17.9v-29h17.5v6.2h-10.7v5.1h9.5V18h-9.5v5.3H389V29.5z"/>
<path class="st0" d="M396.6,29.5h-0.7v-29h0.6c1.3,0,2.7,0,4.2,0c0.6,0,1.2,0,1.9,0c0.7,0,1.3,0,1.7,0c0.4,0,0.7,0,0.9,0
	c5.5,0,9.7,1.4,12.4,4.1s4.1,6.1,4.1,10.3c0,4.3-1.5,7.8-4.4,10.6c-2.9,2.8-7.1,4.2-12.5,4.2c-1.1,0-2.3,0-3.7,0
	C399.9,29.5,398.3,29.5,396.6,29.5z M405.1,6.6c-1.1,0-1.9,0-2.5,0.1v16.6c0.8,0.1,1.6,0.1,2.4,0.1c3,0,5.3-0.8,7-2.3
	c1.7-1.5,2.5-3.6,2.5-6.3c0-2.6-0.9-4.6-2.6-6C410.3,7.3,408,6.6,405.1,6.6z"/>
<path class="st0" d="M436.7,29.4V0.6c3.3-0.2,6.3-0.2,8.9-0.2c3.3,0,5.7,0.6,7.4,1.9c1.7,1.3,2.5,3,2.5,5.3c0,2.8-1.1,5-3.4,6.5v0.1
	c1.3,0.5,2.3,1.3,3,2.4c0.8,1.1,1.2,2.5,1.2,4.2c0,2.9-1,5.1-3.1,6.7c-2,1.5-4.7,2.3-8.1,2.3C441.3,29.7,438.5,29.6,436.7,29.4z
	 M446.1,17.8h-2.6v5.4c0.6,0.2,1.4,0.2,2.3,0.2c2.6,0,3.9-1,3.9-3.1C449.7,18.6,448.5,17.8,446.1,17.8z M445.6,6.5
	c-0.5,0-1.2,0.1-2.1,0.2V12h2.2c2.1,0,3.1-0.9,3.1-2.8c0-0.8-0.3-1.4-0.9-1.9C447.3,6.8,446.5,6.5,445.6,6.5z"/>
<path class="st0" d="M479.7,0.5h7.3l-10.4,17.2v11.8h-6.7V17.7L459.5,0.5h7.7l6.3,11L479.7,0.5z"/>
</svg>
