<svg class="footer__ico" width="80" height="30" viewBox="0 0 80 30" fill="none" xmlns="http://www.w3.org/2000/svg">
    <path d="M75.6559 27.8764L76.5599 25.508L74.3759 19.8238H75.3839L76.8479 23.8026C76.9039 23.9289 76.9679 24.1185 77.0319 24.3554C77.1119 24.1185 77.1679 23.9289 77.2239 23.8026L78.7119 19.8315H79.7439L76.6799 27.8843L75.6559 27.8764ZM71.7839 25.6658V17.8895L72.7919 17.4159V25.6658H71.7839ZM67.2559 24.8764C67.8479 24.8764 68.2959 24.6158 68.6159 24.0869V21.3475C68.2959 20.8501 67.8479 20.6054 67.2559 20.6054C66.7599 20.6054 66.3759 20.7869 66.1039 21.158C65.8319 21.529 65.7039 22.058 65.7039 22.7369C65.7039 23.3527 65.8399 23.8658 66.1199 24.2685C66.3999 24.6711 66.7839 24.8764 67.2559 24.8764ZM67.1199 25.8C66.7779 25.8124 66.4378 25.7444 66.1277 25.6017C65.8175 25.4589 65.5461 25.2455 65.3359 24.9789C64.8648 24.3271 64.6333 23.5362 64.6799 22.7369C64.6799 21.7896 64.9039 21.0395 65.3439 20.5027C65.5546 20.2391 65.8251 20.0283 66.1336 19.887C66.4421 19.7458 66.78 19.678 67.1199 19.6895C67.6959 19.6895 68.1999 19.871 68.6159 20.2421V17.8895L69.6159 17.4159V25.6658H68.6159V25.2079C68.2239 25.6026 67.7359 25.8 67.1199 25.8ZM61.9599 25.6658V22.1369C61.9599 21.608 61.8479 21.2212 61.6159 20.9764C61.4974 20.8523 61.3532 20.7548 61.193 20.6908C61.0329 20.6267 60.8606 20.5977 60.6879 20.6054C59.7759 20.6054 59.3279 21.1106 59.3279 22.1053V25.6579H58.3119V19.8315H59.3199V20.4236C59.4927 20.1855 59.7228 19.9937 59.9897 19.8655C60.2565 19.7372 60.5515 19.6768 60.8479 19.6895C61.5439 19.6895 62.0719 19.8948 62.4319 20.3132C62.7839 20.7316 62.9679 21.3948 62.9679 22.3027V25.6658H61.9599ZM52.5679 22.279H55.5999C55.5919 21.679 55.4399 21.2527 55.1599 20.9764C55.0313 20.8481 54.878 20.7464 54.709 20.6773C54.5401 20.6082 54.3588 20.573 54.1759 20.5738C53.7199 20.5738 53.3439 20.7159 53.0559 21.0001C52.7599 21.2843 52.5999 21.7106 52.5679 22.279ZM54.1679 25.8C53.3679 25.8 52.7279 25.5159 52.2559 24.9475C51.7599 24.3176 51.5074 23.5339 51.5439 22.7369C51.5439 21.7896 51.7839 21.0395 52.2639 20.5027C52.7439 19.9579 53.3839 19.6895 54.1759 19.6895C54.8799 19.6895 55.4719 19.9264 55.9279 20.4001C56.3839 20.858 56.6159 21.5527 56.6159 22.4684C56.6159 22.6816 56.6079 22.9027 56.5839 23.1317H52.5839C52.6159 23.6606 52.7839 24.0868 53.0799 24.4105C53.3759 24.7342 53.7519 24.9001 54.1999 24.9001C54.6879 24.9001 55.1119 24.7263 55.4719 24.371L56.0799 25.0421C55.5759 25.5474 54.9359 25.8 54.1759 25.8H54.1679ZM48.7679 25.6658V19.8238H49.7759V25.6658H48.7679ZM49.7199 18.5922C49.5992 18.7054 49.4385 18.7677 49.2719 18.7659C49.1885 18.7685 49.1055 18.7536 49.0283 18.7223C48.951 18.691 48.8814 18.644 48.8239 18.5843C48.7666 18.5272 48.7215 18.4594 48.6913 18.3848C48.6611 18.3102 48.6463 18.2304 48.6479 18.15C48.647 18.0668 48.6628 17.9842 48.6944 17.907C48.726 17.8298 48.7727 17.7593 48.8319 17.7C48.8878 17.6398 48.9558 17.5919 49.0316 17.5593C49.1074 17.5267 49.1893 17.51 49.2719 17.5105C49.4479 17.5105 49.5919 17.5737 49.7199 17.7C49.7792 17.7593 49.8259 17.8298 49.8575 17.907C49.8891 17.9842 49.9048 18.0668 49.9039 18.15C49.9039 18.3237 49.8399 18.4659 49.7199 18.5922ZM44.1199 25.6658V19.8238H45.1279V20.5896C45.2375 20.3145 45.4312 20.08 45.6821 19.9186C45.9331 19.7573 46.2287 19.6772 46.5279 19.6895C46.8959 19.6895 47.1999 19.7922 47.4399 19.9896L47.2879 20.9211C47.0479 20.7632 46.7599 20.6763 46.4479 20.6763C46.0959 20.6763 45.7919 20.8026 45.5279 21.0711C45.2639 21.3395 45.1279 21.7738 45.1279 22.3738V25.6658H44.1199ZM38.4399 25.6658V17.6684H43.3119V18.608H39.4399V21.0553H41.9999V22.0026H39.4399V25.6658H38.4399ZM68.1359 7.3501H71.1759C71.1599 6.7501 71.0159 6.31577 70.7359 6.04735C70.607 5.91669 70.4527 5.81296 70.2823 5.74243C70.1118 5.6719 69.9288 5.63599 69.7439 5.63681C69.2879 5.63681 68.9199 5.77894 68.6239 6.06316C68.3279 6.35526 68.1679 6.77378 68.1439 7.3501H68.1359ZM69.7439 10.8711C68.9439 10.8711 68.3039 10.5868 67.8319 10.0184C67.3359 9.38854 67.0834 8.6048 67.1199 7.80786C67.1199 6.86049 67.3599 6.11062 67.8399 5.57378C68.3199 5.02904 68.9599 4.7606 69.7439 4.7606C70.4639 4.7606 71.0399 4.99736 71.5039 5.46315C71.9599 5.93683 72.1919 6.62377 72.1919 7.53166C72.1919 7.74482 72.1759 7.96575 72.1519 8.1947H68.1519C68.1919 8.73154 68.3599 9.15795 68.6559 9.48164C68.9519 9.79743 69.3199 9.96311 69.7759 9.96311C70.2639 9.96311 70.6879 9.78949 71.0399 9.44213L71.6559 10.1133C71.1439 10.6185 70.5119 10.8711 69.7439 10.8711ZM64.3039 10.7291V2.95268L65.3039 2.48682V10.7291H64.3039ZM61.1199 10.7291V4.89475H62.1199V10.737L61.1199 10.7291ZM62.0639 3.66312C61.9432 3.77634 61.7825 3.83882 61.6159 3.83698C61.5325 3.83959 61.4495 3.82471 61.3723 3.79342C61.2951 3.76212 61.2254 3.71494 61.1679 3.65522C61.1106 3.59816 61.0655 3.53032 61.0353 3.45573C61.0051 3.38115 60.9903 3.30148 60.9919 3.22117C60.99 3.13657 61.0052 3.05234 61.0368 2.97368C61.0684 2.89503 61.1158 2.82348 61.1759 2.76321C61.2325 2.70449 61.3008 2.65801 61.3766 2.62675C61.4523 2.59549 61.5338 2.58015 61.6159 2.58165C61.7007 2.58164 61.7845 2.59818 61.8627 2.63041C61.9409 2.66264 62.0118 2.70989 62.0713 2.76938C62.1309 2.82886 62.1779 2.89942 62.2095 2.97696C62.2412 3.0545 62.257 3.13756 62.2559 3.22117C62.2559 3.39485 62.1919 3.53681 62.0639 3.66312ZM56.7839 9.93959C57.2879 9.93959 57.6639 9.75785 57.9279 9.37891C58.1839 8.99996 58.3199 8.47891 58.3199 7.80786C58.3543 7.25202 58.2177 6.69889 57.9279 6.22101C57.6719 5.85785 57.2879 5.66842 56.7919 5.66842C56.5153 5.6737 56.2445 5.74741 56.0041 5.88256C55.7638 6.0177 55.5616 6.20997 55.4159 6.44209V9.15802C55.5568 9.39561 55.7575 9.59309 55.9986 9.73143C56.2397 9.86978 56.513 9.94428 56.7919 9.9475L56.7839 9.93959ZM56.9279 10.8711C56.3679 10.8711 55.8639 10.6579 55.4079 10.2316V10.7291H54.4079V2.95268L55.4159 2.48682V5.40012C55.6007 5.19381 55.8289 5.02967 56.0845 4.91923C56.3401 4.80879 56.617 4.75466 56.8959 4.7606C57.6319 4.7606 58.2319 5.02904 58.6719 5.57378C59.1199 6.11062 59.3439 6.8526 59.3439 7.80786C59.3975 8.61293 59.1718 9.41211 58.7039 10.0737C58.2799 10.6027 57.6879 10.8632 56.9279 10.8632V10.8711ZM48.8479 9.38681C49.1279 9.75786 49.5199 9.93959 50.0239 9.93959C50.5199 9.93959 50.9119 9.75785 51.1999 9.37891C51.5047 8.91233 51.6504 8.36191 51.6159 7.80786C51.6159 7.1447 51.4799 6.62367 51.1999 6.24472C51.0672 6.06102 50.8902 5.91299 50.6849 5.81375C50.4795 5.7145 50.2524 5.6672 50.0239 5.67632C49.5199 5.67632 49.1279 5.85787 48.8479 6.23682C48.5398 6.70513 48.3912 7.25831 48.4239 7.81576C48.4239 8.47892 48.5599 8.99997 48.8399 9.38681H48.8479ZM51.9279 10.0579C51.6932 10.3263 51.4 10.5387 51.0703 10.6795C50.7406 10.8203 50.3829 10.8859 50.0239 10.8711C49.2239 10.8711 48.5839 10.5948 48.1119 10.0579C47.6088 9.41994 47.3585 8.62275 47.4079 7.81576C47.4079 6.8684 47.6479 6.11852 48.1119 5.57378C48.3472 5.3039 48.6416 5.09038 48.9729 4.94949C49.3042 4.8086 49.6636 4.74401 50.0239 4.7606C50.8239 4.7606 51.4639 5.02904 51.9279 5.57378C52.4079 6.11062 52.6399 6.8526 52.6399 7.80786C52.6399 8.75523 52.3999 9.50531 51.9279 10.0579ZM45.4719 10.7291H44.4799V5.81837C44.4799 5.50258 44.4799 5.21848 44.4959 4.94216C44.4159 5.15532 44.3039 5.45524 44.1439 5.84208L41.9199 10.8711L39.7599 5.81837C39.6373 5.53202 39.5226 5.24255 39.4159 4.95007C39.4399 5.15533 39.4559 5.44732 39.4559 5.81837V10.7291H38.4479V2.7395H39.3999L41.7439 8.11586L41.9519 8.65265L42.1599 8.11586L44.5199 2.7395H45.4799L45.4719 10.7291Z" fill="white"/>
    <path d="M28.1278 28.871C27.9851 28.8711 27.8477 28.8173 27.7438 28.7209C27.6857 28.6689 27.6393 28.6056 27.6076 28.5349C27.5759 28.4641 27.5596 28.3878 27.5598 28.3105C27.5598 28.1618 27.6196 28.0192 27.7261 27.914C27.8327 27.8089 27.9771 27.7498 28.1278 27.7498C28.2784 27.7498 28.4229 27.8089 28.5294 27.914C28.6359 28.0192 28.6958 28.1618 28.6958 28.3105C28.6958 28.4763 28.6158 28.6261 28.5038 28.7209C28.4031 28.8183 28.2688 28.8749 28.1278 28.8789V28.871ZM25.7838 18.7104H30.4638V27.134H25.7838V18.7104ZM30.7358 17.1235H25.5198C24.7758 17.1235 24.1758 17.7156 24.1758 18.4498V28.192C24.1758 28.9262 24.7758 29.5182 25.5198 29.5182H30.7358C31.4718 29.5182 32.0798 28.9262 32.0798 28.192V18.4498C32.0798 17.7156 31.4718 17.1235 30.7358 17.1235Z" fill="white"/>
    <path d="M22.8318 28.192V25.9027H18.1118V11.2658C18.1118 10.9579 18.3598 10.7132 18.6718 10.7132H29.3598C29.6718 10.7132 29.9198 10.9579 29.9198 11.2658V15.7973H30.7278C31.2238 15.7973 31.6798 15.9394 32.0718 16.1684V11.2737C32.0718 10.5618 31.7852 9.87894 31.2751 9.37555C30.765 8.87217 30.0732 8.58936 29.3518 8.58936H18.6798C17.9598 8.59145 17.27 8.87528 16.7616 9.37844C16.2532 9.8816 15.9678 10.5632 15.9678 11.2737V27.0236C15.9678 27.7355 16.2543 28.4182 16.7644 28.9216C17.2745 29.425 17.9664 29.7078 18.6878 29.7078H23.3278C23.0202 29.2596 22.8507 28.7332 22.8398 28.192H22.8318Z" fill="white"/>
    <path d="M13.816 21.0236H2.616C2.49286 21.0196 2.37601 20.969 2.28964 20.8823C2.20327 20.7956 2.15398 20.6795 2.152 20.5579V2.5895C2.15198 2.46522 2.20145 2.34582 2.28975 2.25721C2.37804 2.1686 2.49809 2.11781 2.624 2.11574H29.456C29.5819 2.11781 29.702 2.1686 29.7903 2.25721C29.8785 2.34582 29.928 2.46522 29.928 2.5895V6.52106C30.712 6.6158 31.448 6.86841 32.08 7.28683V2.5895C32.08 1.16055 30.904 0 29.456 0H2.624C1.92807 0 1.26065 0.272822 0.768552 0.758442C0.276456 1.24406 0 1.90273 0 2.5895V20.5579C0 21.979 1.176 23.1474 2.624 23.1474H11.616V26.6131H10.2C9.77247 26.6131 9.36245 26.7807 9.06014 27.079C8.75783 27.3773 8.588 27.7821 8.588 28.204C8.588 28.6259 8.75783 29.0305 9.06014 29.3289C9.36245 29.6272 9.77247 29.7947 10.2 29.7947H14.72C14.16 29.0053 13.816 28.0579 13.816 27.0237V21.0236Z" fill="white"/>
</svg>

