<svg width="30" height="30" viewBox="0 0 30 30" fill="none" xmlns="http://www.w3.org/2000/svg">
    <path fill-rule="evenodd" clip-rule="evenodd" d="M28.2042 11.4641C28.3479 11.9996 28.6423 12.4827 29.0523 12.856C29.3508 13.1278 29.5893 13.4589 29.7525 13.828C29.9157 14.1972 30 14.5964 30 15.0001C30 15.4037 29.9157 15.8029 29.7525 16.1721C29.5893 16.5413 29.3508 16.8722 29.0523 17.144C28.6423 17.5173 28.3479 18.0005 28.2042 18.5361C28.0604 19.0716 28.0733 19.637 28.2412 20.1655C28.7579 21.7985 27.7635 23.5148 26.0968 23.8814C24.9913 24.1258 24.1247 24.9867 23.8803 26.0976C23.7942 26.4922 23.6266 26.8645 23.3883 27.1906C23.1499 27.5167 22.8461 27.7895 22.4962 27.9913C22.1463 28.1932 21.758 28.3196 21.3564 28.3627C20.9547 28.4058 20.5485 28.3645 20.1637 28.2415C19.6352 28.0736 19.0695 28.0607 18.5339 28.2045C17.9982 28.3482 17.515 28.6425 17.1416 29.0524C16.8698 29.3509 16.5387 29.5894 16.1695 29.7525C15.8002 29.9157 15.4009 30 14.9972 30C14.5935 30 14.1943 29.9157 13.825 29.7525C13.4557 29.5894 13.1246 29.3509 12.8529 29.0524C12.4794 28.6425 11.9962 28.3482 11.4606 28.2045C10.9249 28.0607 10.3593 28.0736 9.83073 28.2415C8.19745 28.758 6.48084 27.7639 6.11419 26.0976C5.86975 24.9923 5.00867 24.1258 3.8976 23.8814C3.5029 23.7954 3.13054 23.6278 2.80438 23.3895C2.47822 23.1512 2.20546 22.8474 2.00357 22.4976C1.80168 22.1478 1.67513 21.7596 1.63202 21.358C1.58891 20.9564 1.63019 20.5502 1.75323 20.1655C1.92184 19.6375 1.93557 19.0724 1.79281 18.5369C1.65004 18.0014 1.35676 17.518 0.947698 17.144C0.649169 16.8722 0.410676 16.5413 0.247485 16.1721C0.0842936 15.8029 0 15.4037 0 15.0001C0 14.5964 0.0842936 14.1972 0.247485 13.828C0.410676 13.4589 0.649169 13.1278 0.947698 12.856C1.35676 12.482 1.65004 11.9986 1.79281 11.4631C1.93557 10.9276 1.92184 10.3625 1.75323 9.83452C1.23658 8.20155 2.23099 6.48529 3.8976 6.11871C5.00312 5.87432 5.86975 5.0134 6.11419 3.90254C6.20025 3.50792 6.36782 3.13554 6.60616 2.80944C6.84451 2.48334 7.14837 2.21068 7.49827 2.00883C7.84817 1.80698 8.23639 1.68038 8.63806 1.63728C9.03972 1.59418 9.44596 1.6355 9.83073 1.75851C10.3593 1.92642 10.9249 1.93926 11.4606 1.79553C11.9962 1.6518 12.4794 1.35755 12.8529 0.947598C13.1246 0.649126 13.4557 0.410637 13.825 0.247477C14.1943 0.0843159 14.5935 0 14.9972 0C15.4009 0 15.8002 0.0843159 16.1695 0.247477C16.5387 0.410637 16.8698 0.649126 17.1416 0.947598C17.515 1.35755 17.9982 1.6518 18.5339 1.79553C19.0695 1.93926 19.6352 1.92642 20.1637 1.75851C21.797 1.24196 23.5136 2.23624 23.8803 3.90254C24.1247 5.00785 24.9858 5.87432 26.0968 6.11871C26.4915 6.20475 26.8639 6.37224 27.1901 6.61054C27.5162 6.84884 27.789 7.15271 27.9909 7.50254C28.1928 7.85238 28.3193 8.24043 28.3624 8.64202C28.4055 9.0436 28.3643 9.44981 28.2412 9.83452C28.0733 10.363 28.0604 10.9285 28.2042 11.4641ZM3.70584 10.3238C3.09164 11.8063 2.77551 13.3954 2.77551 15.0001C2.77551 18.2409 4.06316 21.3489 6.3552 23.6405C8.64723 25.9321 11.7559 27.2196 14.9973 27.2196C18.2387 27.2196 21.3474 25.9321 23.6394 23.6405C25.9315 21.3489 27.2191 18.2409 27.2191 15.0001C27.2191 13.3954 26.903 11.8063 26.2888 10.3238C25.6746 8.84124 24.7743 7.49423 23.6394 6.35954C22.5045 5.22485 21.1572 4.32475 19.6744 3.71066C18.1916 3.09657 16.6023 2.78055 14.9973 2.78055C13.3923 2.78055 11.8031 3.09657 10.3202 3.71066C8.83742 4.32475 7.4901 5.22485 6.3552 6.35954C5.2203 7.49423 4.32005 8.84124 3.70584 10.3238Z" fill="white"/>
    <path d="M13.0886 13.5167V12.5278C13.0812 12.013 13.2782 11.5164 13.6364 11.1466C13.9947 10.7769 14.485 10.5645 14.9997 10.5557C15.5145 10.5645 16.0047 10.7769 16.363 11.1466C16.7212 11.5164 16.9182 12.013 16.9108 12.5278V13.5167H13.0886ZM15.7164 18.6778C15.7201 18.7114 15.7171 18.7455 15.7075 18.7779C15.698 18.8104 15.6821 18.8405 15.6608 18.8668C15.6108 18.9223 15.5497 18.9501 15.4775 18.9501H14.5219C14.488 18.9499 14.4546 18.9425 14.4238 18.9281C14.3931 18.9137 14.3659 18.8928 14.3442 18.8668C14.3229 18.8405 14.307 18.8104 14.2975 18.7779C14.2879 18.7455 14.2849 18.7114 14.2886 18.6778L14.433 17.2778C14.1886 17.0945 14.0442 16.8001 14.0442 16.4834C14.0442 15.939 14.4719 15.4945 14.9997 15.4945C15.5275 15.4945 15.9553 15.939 15.9553 16.4834C15.9553 16.8001 15.8108 17.0945 15.5664 17.2778L15.7164 18.6778ZM19.0608 13.5167H18.3442V12.5278C18.3442 10.6222 16.8442 9.07227 14.9997 9.07227C14.0984 9.08834 13.2403 9.46117 12.6133 10.1089C11.9864 10.7567 11.6419 11.6265 11.6553 12.5278V13.5167H10.9386C10.8053 13.5167 10.6997 13.6279 10.6997 13.7668V19.939C10.6997 20.4834 11.1275 20.9279 11.6553 20.9279H18.3442C18.8719 20.9279 19.2997 20.4834 19.2997 19.939V13.7668C19.2997 13.6279 19.1942 13.5167 19.0608 13.5167Z" fill="white"/>
    <path d="M11.1557 22.8056L10.2779 24.539L10.8891 24.4057L10.9724 24.7723L10.0168 24.9779L9.6835 24.8057L10.7891 22.6168L11.1557 22.8056ZM9.37795 21.528C9.47664 21.611 9.55245 21.7178 9.59815 21.8384C9.64386 21.959 9.65794 22.0893 9.63906 22.2169C9.62239 22.3502 9.57239 22.4946 9.50017 22.6335C9.33342 22.9549 9.09368 23.2326 8.80017 23.4446C8.66684 23.5391 8.53906 23.6112 8.41128 23.6445C8.28922 23.6792 8.16033 23.6821 8.03684 23.6529C7.91336 23.6238 7.79938 23.5636 7.70572 23.478C7.60895 23.3961 7.53467 23.2909 7.48995 23.1723C7.44523 23.0536 7.43154 22.9256 7.45017 22.8002C7.46684 22.6669 7.51684 22.528 7.58906 22.3835C7.75581 22.0622 7.99555 21.7843 8.28906 21.5723C8.42239 21.4779 8.55017 21.4057 8.67795 21.3724C8.80572 21.3391 8.92795 21.3335 9.04461 21.3557C9.16684 21.3835 9.27795 21.4391 9.37795 21.5335V21.528ZM9.20017 22.2946C9.23906 22.2001 9.25572 22.1112 9.25572 22.0224C9.25572 21.939 9.22239 21.8613 9.15017 21.8002C9.11935 21.7712 9.08231 21.7495 9.04187 21.737C9.00143 21.7245 8.95866 21.7214 8.91684 21.7279C8.8335 21.739 8.75017 21.7669 8.66128 21.8224C8.57795 21.8724 8.49461 21.9335 8.41683 22.0112C8.27744 22.1454 8.15096 22.2923 8.03906 22.4501C7.97795 22.539 7.92795 22.6279 7.8835 22.7279C7.84461 22.8168 7.82795 22.9057 7.82795 22.9946C7.82795 23.0835 7.86128 23.1613 7.92795 23.2169C8.00017 23.2835 8.07795 23.3057 8.16684 23.2946C8.25017 23.2835 8.3335 23.2502 8.42239 23.2002C8.66446 23.0243 8.87646 22.8104 9.05017 22.5668C9.11128 22.4779 9.16128 22.389 9.20017 22.289V22.2946ZM7.84461 21.0724C7.60569 21.3415 7.30694 21.5509 6.97239 21.6835C6.82239 21.7502 6.67795 21.7779 6.55017 21.7835C6.41684 21.7835 6.29461 21.7612 6.1835 21.7056C6.07239 21.6501 5.97795 21.5668 5.90573 21.4501C5.83083 21.3472 5.78337 21.2269 5.76782 21.1006C5.75227 20.9742 5.76914 20.8459 5.81684 20.7279C5.87239 20.6056 5.94461 20.4835 6.05572 20.3612C6.29404 20.0901 6.59284 19.8789 6.92795 19.7447C7.07795 19.6835 7.21684 19.6501 7.35017 19.6446C7.47667 19.6394 7.60237 19.6669 7.71522 19.7243C7.82807 19.7817 7.92428 19.8671 7.99462 19.9724C8.0686 20.0769 8.11503 20.1984 8.12959 20.3256C8.14416 20.4528 8.1264 20.5817 8.07795 20.7002C8.0335 20.828 7.95572 20.9502 7.84461 21.0724ZM7.63906 20.6668C7.69461 20.5891 7.73906 20.5058 7.75573 20.4224C7.77795 20.3335 7.76128 20.2556 7.70572 20.1779C7.68332 20.1424 7.65319 20.1127 7.6176 20.0905C7.582 20.0684 7.54185 20.0545 7.50017 20.0501C7.41128 20.039 7.32239 20.0501 7.22795 20.0779C7.1335 20.1057 7.03906 20.1446 6.95017 20.2001C6.78066 20.2958 6.62067 20.4074 6.47239 20.5335C6.38906 20.6057 6.31683 20.6835 6.25572 20.7612C6.20017 20.8446 6.15573 20.9279 6.1335 21.0112C6.11684 21.0945 6.1335 21.178 6.1835 21.2558C6.23906 21.3335 6.30572 21.3724 6.39461 21.3835C6.47795 21.3946 6.57239 21.3835 6.66684 21.3557C6.94403 21.2446 7.20113 21.0888 7.42795 20.8946C7.50572 20.8223 7.57794 20.7502 7.63906 20.6724V20.6668ZM5.91683 19.0335C5.90115 19.2011 5.82158 19.3563 5.69461 19.4669C5.62795 19.5224 5.55572 19.5613 5.47239 19.5891C5.39226 19.6159 5.30744 19.6258 5.22329 19.6181C5.13914 19.6105 5.05749 19.5854 4.9835 19.5446C4.87103 19.484 4.7789 19.3917 4.71863 19.279C4.65836 19.1664 4.63261 19.0385 4.64461 18.9113C4.66085 18.7439 4.74032 18.5889 4.86683 18.478C4.92239 18.4224 5.00017 18.3835 5.08906 18.3558C5.16839 18.3298 5.2522 18.3202 5.33533 18.3278C5.41845 18.3355 5.49913 18.3601 5.57239 18.4001C5.6859 18.4599 5.77917 18.552 5.84046 18.6647C5.90176 18.7774 5.92833 18.9058 5.91683 19.0335ZM5.55572 19.1168C5.57445 19.0802 5.58557 19.0401 5.58844 18.9991C5.5913 18.958 5.58584 18.9168 5.57239 18.878C5.56114 18.8388 5.54204 18.8023 5.51625 18.7708C5.49046 18.7393 5.45853 18.7134 5.42239 18.6946C5.38636 18.6743 5.34647 18.6619 5.30531 18.6581C5.26415 18.6543 5.22265 18.6591 5.1835 18.6723C5.14387 18.6842 5.10712 18.7042 5.07557 18.7309C5.04402 18.7577 5.01835 18.7907 5.00017 18.8279C4.98145 18.8646 4.97032 18.9046 4.96746 18.9456C4.96459 18.9867 4.97005 19.0279 4.9835 19.0668C5.01128 19.1501 5.06128 19.2112 5.1335 19.2501C5.21128 19.289 5.28906 19.2946 5.37239 19.2724C5.41202 19.2605 5.44877 19.2406 5.48032 19.2138C5.51187 19.187 5.53755 19.154 5.55572 19.1168ZM6.26128 16.4446C6.37121 16.5056 6.46106 16.5973 6.51996 16.7084C6.57885 16.8195 6.60424 16.9453 6.59307 17.0705C6.5819 17.1958 6.53464 17.3151 6.45701 17.4141C6.37938 17.513 6.27472 17.5873 6.15572 17.628C6.07677 17.6548 5.99316 17.6652 5.91004 17.6585C5.82691 17.6518 5.74604 17.6281 5.67239 17.589C5.56063 17.5291 5.46885 17.4378 5.40835 17.3263C5.34785 17.2148 5.32128 17.0881 5.33191 16.9617C5.34254 16.8354 5.38991 16.7148 5.46817 16.615C5.54644 16.5153 5.65219 16.4406 5.77239 16.4002C5.85253 16.3734 5.93735 16.3635 6.0215 16.3712C6.10564 16.3788 6.18729 16.4037 6.26128 16.4446ZM6.23906 17.1612C6.25869 17.125 6.27078 17.0851 6.2746 17.0441C6.27841 17.003 6.27389 16.9616 6.26128 16.9224C6.25003 16.8833 6.23093 16.8468 6.20514 16.8152C6.17935 16.7837 6.14742 16.7578 6.11128 16.739C6.07525 16.7187 6.03536 16.7064 5.9942 16.7025C5.95304 16.6987 5.91154 16.7035 5.87239 16.7168C5.83276 16.7287 5.79601 16.7486 5.76446 16.7754C5.73291 16.8021 5.70724 16.8352 5.68906 16.8723C5.67034 16.909 5.65921 16.949 5.65635 16.9901C5.65348 17.0311 5.65894 17.0723 5.67239 17.1112C5.69461 17.1945 5.74461 17.2557 5.82239 17.2946C5.89461 17.3335 5.97239 17.339 6.05572 17.3113C6.09486 17.3 6.1313 17.2809 6.16282 17.2551C6.19434 17.2293 6.22028 17.1974 6.23906 17.1612ZM7.01684 18.4613L4.1835 17.8501L4.22795 17.5334L7.06128 18.1446L7.01684 18.4613ZM4.5835 14.8113C4.47685 14.8043 4.3738 14.7699 4.28428 14.7116C4.19476 14.6532 4.12178 14.5726 4.07239 14.4779C4.01999 14.3848 3.98427 14.2834 3.96684 14.178C3.92423 13.941 3.95525 13.6967 4.05572 13.478C4.11128 13.3558 4.18906 13.2502 4.2835 13.1613L4.56128 13.478C4.49262 13.5234 4.43554 13.5842 4.39461 13.6557C4.34556 13.737 4.31691 13.829 4.31111 13.9238C4.30531 14.0186 4.32252 14.1134 4.36128 14.2001C4.3835 14.2445 4.41684 14.2835 4.45572 14.3113C4.49764 14.3431 4.54773 14.3623 4.60017 14.3668C4.64831 14.3736 4.6974 14.3674 4.74235 14.3489C4.78729 14.3303 4.82644 14.3001 4.85572 14.2613C4.91642 14.1566 4.97204 14.049 5.02239 13.939C5.05573 13.8612 5.08906 13.7835 5.1335 13.7057C5.16683 13.6224 5.21684 13.5502 5.27795 13.4835C5.34276 13.4131 5.42348 13.3592 5.51336 13.3263C5.60324 13.2935 5.69967 13.2826 5.79461 13.2946C5.90611 13.3005 6.0146 13.3328 6.11118 13.3889C6.20776 13.4449 6.28967 13.523 6.35017 13.6169C6.40573 13.7058 6.44461 13.8056 6.46684 13.9167C6.51518 14.1908 6.47429 14.4733 6.35017 14.7224C6.27795 14.8669 6.1835 14.9835 6.05572 15.0668L5.80017 14.728C5.91123 14.6588 6.00011 14.5591 6.05625 14.441C6.11238 14.3228 6.13341 14.191 6.11683 14.0612C6.10818 14.0081 6.08931 13.9573 6.06128 13.9113C6.03526 13.8638 5.9977 13.8237 5.95207 13.7945C5.90643 13.7654 5.85419 13.7482 5.80017 13.7446C5.74307 13.7356 5.68458 13.7454 5.6335 13.7724C5.58948 13.8018 5.55172 13.8395 5.52239 13.8835C5.4835 13.928 5.45017 13.9835 5.42239 14.0502C5.35589 14.1929 5.28922 14.3353 5.22239 14.4779C5.1835 14.5445 5.13906 14.6057 5.07795 14.6612C5.02239 14.7168 4.95017 14.7557 4.87239 14.7834C4.78906 14.8168 4.69461 14.8224 4.5835 14.8113ZM6.60572 12.9335L4.30572 12.1334L4.8335 10.5945L5.18906 10.7169L4.80572 11.8445L5.38906 12.0446L5.75573 10.978L6.10017 11.1002L5.7335 12.1668L6.3835 12.389L6.78906 11.2057L7.15017 11.3335L6.60572 12.9335ZM5.8835 9.96682C5.79215 9.82835 5.73064 9.67235 5.7029 9.50879C5.67516 9.34523 5.6818 9.1777 5.72239 9.01685C5.80805 8.67835 6.00828 8.37995 6.28906 8.17239C6.36128 8.12239 6.4335 8.08352 6.51128 8.05018C6.5835 8.01685 6.66128 8.00013 6.74461 7.99458L6.77239 8.42236C6.66672 8.42699 6.56457 8.46164 6.47795 8.52233C6.38538 8.58466 6.30627 8.66498 6.24532 8.75846C6.18437 8.85195 6.14282 8.95678 6.12313 9.06662C6.10344 9.17647 6.10601 9.28914 6.1307 9.39798C6.15539 9.50681 6.20168 9.60957 6.26684 9.70017C6.41126 9.89843 6.619 10.0415 6.85572 10.1057C6.96086 10.1372 7.07166 10.1451 7.18019 10.1288C7.28872 10.1124 7.39229 10.0724 7.4835 10.0113C7.57795 9.95576 7.66128 9.87232 7.72795 9.76676C7.80017 9.65565 7.84461 9.54462 7.86128 9.43351C7.87239 9.3224 7.86128 9.21125 7.82795 9.11125L8.22239 8.95568C8.27795 9.12234 8.28906 9.2891 8.26128 9.46688C8.23063 9.65449 8.15851 9.83287 8.05017 9.98907C7.93906 10.1446 7.82239 10.2724 7.67794 10.3724C7.47002 10.5195 7.22067 10.5966 6.96598 10.5926C6.7113 10.5886 6.46449 10.5037 6.26128 10.3501C6.09461 10.239 5.97239 10.1113 5.87795 9.96682H5.8835ZM8.46128 8.55569C8.35017 8.50014 8.23906 8.41126 8.15017 8.2946L7.16683 7.10021L7.50017 6.82243L8.47239 8.00014C8.51683 8.05569 8.56684 8.1057 8.62795 8.15015C8.6835 8.18904 8.75017 8.21676 8.81683 8.23343C8.8835 8.25009 8.95572 8.25009 9.0335 8.23343C9.10572 8.2112 9.1835 8.16676 9.26683 8.1001C9.34461 8.03343 9.40017 7.96684 9.4335 7.89461C9.46325 7.82883 9.4777 7.75709 9.47578 7.68492C9.47385 7.61276 9.4556 7.54205 9.42239 7.47795C9.39335 7.41233 9.356 7.35068 9.31128 7.29457L8.3335 6.11686L8.66684 5.83908L9.65573 7.02791C9.74461 7.13902 9.81128 7.26132 9.85017 7.38355C9.88613 7.50234 9.89729 7.62715 9.88296 7.75043C9.86862 7.87372 9.8291 7.99273 9.76683 8.1001C9.70572 8.21121 9.62239 8.31123 9.51128 8.40012C9.40572 8.49456 9.28906 8.56129 9.17239 8.60018C9.0577 8.64467 8.93473 8.66373 8.81195 8.65606C8.68918 8.64839 8.56953 8.61411 8.46128 8.55569ZM11.5835 5.59454C11.5391 5.73343 11.4502 5.8613 11.3057 5.97241L12.3502 6.6891L11.8724 6.91127L10.9279 6.20014L10.6502 6.32791L11.0724 7.27233L10.6835 7.46126L9.66683 5.22236L10.4391 4.87242C10.5391 4.81687 10.6446 4.78343 10.7557 4.7612C10.8668 4.73898 10.9668 4.73341 11.0668 4.75008C11.1732 4.76628 11.2733 4.81027 11.3572 4.87758C11.4411 4.94488 11.5058 5.03323 11.5446 5.13352C11.6168 5.30018 11.6279 5.45009 11.5835 5.59454ZM11.1779 5.50014C11.1891 5.44458 11.1779 5.37786 11.1502 5.3112C11.1302 5.25943 11.0952 5.21485 11.0496 5.18316C11.0041 5.15147 10.9501 5.13424 10.8946 5.13352C10.8391 5.13352 10.7835 5.13354 10.7279 5.15576C10.6724 5.17243 10.6168 5.18901 10.5724 5.21124L10.2113 5.37793L10.5002 6.00564L10.8224 5.85577C10.8779 5.83354 10.9335 5.80012 10.9835 5.76679C11.0391 5.73346 11.0779 5.69459 11.1113 5.65015C11.1457 5.60649 11.1686 5.55491 11.1779 5.50014ZM14.2502 5.92792L14.3224 6.31123L12.6779 6.61681L12.2391 4.20009L13.8224 3.90576L13.8891 4.2835L12.7335 4.49455L12.8446 5.10571L13.9391 4.90565L14.0057 5.26685L12.9113 5.47233L13.0335 6.15565L14.2502 5.92792ZM16.3335 4.81681C16.2779 4.91126 16.2335 5.02798 16.2113 5.1502C16.1862 5.27084 16.1824 5.39488 16.2002 5.51682C16.2138 5.62887 16.2517 5.73664 16.3112 5.83257C16.3707 5.92851 16.4503 6.01031 16.5446 6.07237C16.7962 6.21869 17.0912 6.27181 17.3779 6.22239L17.4946 5.60566L16.9946 5.5057L17.0613 5.1502L17.9779 5.33344L17.7335 6.58344C17.4242 6.6492 17.1047 6.6511 16.7946 6.589C16.6132 6.55496 16.4398 6.48719 16.2835 6.38908C16.1427 6.29963 16.0214 6.18258 15.9269 6.04511C15.8324 5.90764 15.7666 5.75248 15.7335 5.58898C15.7002 5.42231 15.7057 5.24455 15.7391 5.05566C15.7779 4.86122 15.8502 4.69461 15.9446 4.55572C16.0353 4.41802 16.1538 4.30089 16.2925 4.21189C16.4313 4.12289 16.5872 4.06404 16.7502 4.03909C17.1091 3.98691 17.4751 4.05731 17.7891 4.23901C17.9335 4.33346 18.0502 4.42792 18.1279 4.53904L17.7724 4.80013C17.7151 4.71098 17.6393 4.63524 17.5502 4.57796C17.4502 4.5081 17.3372 4.45929 17.2178 4.43446C17.0984 4.40963 16.9752 4.40929 16.8557 4.43351C16.7446 4.46129 16.6446 4.50573 16.5557 4.56684C16.4724 4.63351 16.3946 4.71681 16.3335 4.81681ZM20.3335 7.03904C20.2668 7.16681 20.1835 7.2724 20.0835 7.35018C19.9891 7.42784 19.8797 7.48518 19.7621 7.51864C19.6445 7.55209 19.5213 7.56086 19.4002 7.54454C19.2724 7.52788 19.1446 7.489 19.0224 7.41678C18.9002 7.35011 18.8002 7.27236 18.7113 7.17236C18.6278 7.08078 18.5649 6.97254 18.5265 6.85471C18.4882 6.73688 18.4754 6.61219 18.4891 6.48904C18.5002 6.36126 18.5446 6.23351 18.6113 6.10018L19.3335 4.73353L19.7224 4.93902L19.0002 6.29454C18.9668 6.35565 18.9446 6.42238 18.9279 6.4946C18.9089 6.56454 18.906 6.63795 18.9194 6.70917C18.9329 6.7804 18.9624 6.84757 19.0057 6.90571C19.0502 6.96682 19.1168 7.0224 19.2057 7.0724C19.3002 7.1224 19.3835 7.15012 19.4613 7.15012C19.5328 7.15318 19.6041 7.13982 19.6696 7.11092C19.7351 7.08202 19.7931 7.03833 19.8391 6.98343C19.8891 6.93343 19.9279 6.87242 19.9613 6.81687L20.6835 5.45565L21.0613 5.66683L20.3335 7.03904ZM20.9779 8.00014L20.4335 8.25011L20.0891 7.9113L22.5391 6.89459L22.8057 7.15568L21.8613 9.65568L21.5113 9.30575L21.7335 8.74463L20.9779 8.00014ZM21.3446 7.83344L21.8835 8.36675L22.3057 7.38897L21.3446 7.83344ZM21.9724 9.88897L24.0557 8.63354L24.4946 9.36122C24.5502 9.46122 24.6002 9.56681 24.6335 9.67236C24.6668 9.77792 24.6835 9.87795 24.6779 9.98351C24.6779 10.0835 24.6446 10.178 24.5946 10.2668C24.5446 10.3557 24.4668 10.4335 24.3557 10.5001C24.2252 10.5876 24.0661 10.6213 23.9113 10.5945C23.7613 10.5668 23.6335 10.489 23.5057 10.3612L22.9168 11.4835L22.6446 11.0334L23.2391 10.0058L23.0779 9.73353L22.1946 10.2668L21.9724 9.88897ZM23.3835 9.55016L23.5668 9.85574C23.5946 9.9113 23.6335 9.96687 23.6724 10.0113C23.7113 10.0613 23.7557 10.1002 23.8002 10.128C23.8502 10.1557 23.9002 10.1723 23.9557 10.1779C24.0113 10.1779 24.0724 10.1613 24.1335 10.1224C24.1841 10.0948 24.2249 10.0521 24.2502 10.0002C24.2726 9.9534 24.284 9.90207 24.2835 9.85018C24.2835 9.79462 24.2668 9.7446 24.2446 9.68905C24.2246 9.63541 24.2004 9.58339 24.1724 9.53347L23.9668 9.20009L23.3835 9.55016ZM22.9557 11.5168L25.5779 11.8946L25.6779 12.2612L23.6113 13.9279L23.4835 13.4502L23.9613 13.078L23.6835 12.0502L23.0835 11.989L22.9557 11.5168ZM24.0779 12.0946L24.2779 12.8334L25.1279 12.2002L24.0779 12.0946ZM24.1779 15.9279V15.939L26.0002 15.9947L25.9835 16.4279L23.5557 16.3557L23.5724 15.8002L25.4835 14.689L23.6057 14.6279L23.6168 14.1891L26.0502 14.2613L26.0335 14.8446L24.1779 15.9279ZM25.4557 17.2556L25.8168 17.3669L25.2557 19.2223L24.8946 19.1112L25.1113 18.389L23.1446 17.7835L23.2724 17.3669L25.2391 17.9779L25.4557 17.2556ZM22.7891 18.7613L24.8891 20.0058L24.0724 21.4113L23.7446 21.2168L24.3446 20.189L23.8113 19.8724L23.2446 20.8446L22.9279 20.6613L23.4946 19.689L22.9057 19.3334L22.2779 20.4169L21.9446 20.2168L22.7891 18.7613ZM21.6724 20.5557L23.4057 22.2779L22.2779 23.439L22.0057 23.1668L22.8335 22.3224L22.3891 21.8779L21.6113 22.689L21.3502 22.4279L22.1279 21.6224L21.6446 21.139L20.7724 22.0279L20.4946 21.7557L21.6724 20.5557Z" fill="white"/>
</svg>
