<svg width="46" height="56" viewBox="0 0 46 56" fill="none" xmlns="http://www.w3.org/2000/svg">
<path d="M13.1705 35.7555C11.7688 35.3811 10.9488 33.9102 11.3456 32.4928L12.959 26.4757C13.3292 25.0583 14.7839 24.2292 16.1857 24.6304C17.5875 25.0048 18.4074 26.4757 18.0107 27.893L16.3973 33.8835C16.0006 35.3009 14.5459 36.1299 13.1705 35.7555Z" fill="white"/>
<path d="M21.8986 35.7555C20.4968 35.3811 19.6769 33.9102 20.0736 32.4928L21.7134 26.4757C22.0837 25.0583 23.5384 24.2292 24.9402 24.6304C26.342 25.0048 27.1619 26.4757 26.7652 27.893L25.1253 33.8835C24.7551 35.3009 23.3004 36.1299 21.8986 35.7555Z" fill="white"/>
<path d="M40.7296 26.1017C40.756 25.9947 40.8089 25.8877 40.8354 25.7807L44.9349 10.6977C45.3846 9.01284 45.173 7.30128 44.4324 5.8839C44.0886 5.10835 43.2158 3.9584 42.052 2.83519C41.4966 2.30033 40.9412 1.81896 40.4122 1.44455C40.0683 1.17712 39.6981 0.936434 39.3013 0.722489C39.222 0.669003 39.1162 0.64226 39.0368 0.588774C38.7195 0.455058 38.4021 0.321343 38.0847 0.241114C34.567 -0.721637 30.9435 1.36432 29.9649 4.89441L26.3414 18.1857H20.9458L21.607 15.7788C22.1625 13.7731 21.7128 11.7139 20.602 10.1361C20.1524 9.46747 19.4911 8.69193 18.6977 7.91638C18.1951 7.435 17.7191 7.00711 17.243 6.65945C16.7934 6.25831 16.2644 5.93739 15.709 5.6967C15.709 5.6967 15.709 5.6967 15.6825 5.6967C15.3916 5.56298 15.0742 5.45601 14.7303 5.34904C11.2126 4.38629 7.58915 6.47225 6.61055 10.0023L4.07146 19.3357L0.606658 31.7445C-0.900927 37.2803 0.447965 42.9498 3.72762 47.1485C4.46819 48.1112 5.3939 49.1809 6.4783 50.2239C7.06018 50.7855 7.64205 51.3204 8.22393 51.8018C8.8058 52.3099 9.44057 52.7913 10.1018 53.2191C10.7366 53.647 11.3184 53.9679 11.7945 54.2086C12.7467 54.69 13.7782 55.0912 14.8361 55.3853C16.3437 55.8132 17.8778 56.0004 19.4118 56.0004C25.3099 56.0004 30.917 52.8982 34.0909 47.6031L43.2158 44.8753L37.6351 37.1733L40.7296 26.1017ZM39.8832 7.67569L35.7836 22.732C35.7836 22.7855 35.7572 22.839 35.7307 22.8658L32.2395 35.5152L36.2068 40.9976L29.9384 42.8696L29.6475 43.4044C26.4207 49.2077 19.7556 52.0424 13.4079 50.2774C5.81708 48.1647 1.32078 40.1953 3.41024 32.5467L6.90148 20.1112L9.44057 10.7779C9.91665 9.11981 11.3978 8.02335 13.0112 8.02335C13.3286 8.02335 13.6724 8.07683 13.9898 8.15706C15.947 8.69193 17.1107 10.7511 16.5818 12.7569L14.2807 21.1275L28.5631 21.1007L32.7685 5.66996C33.2974 3.69097 35.334 2.51427 37.3177 3.04914C39.2749 3.61074 40.4122 5.66996 39.8832 7.67569Z" fill="#8E7BFF"/>
</svg>
