<svg width="40" height="40" viewBox="0 0 40 40" fill="none" xmlns="http://www.w3.org/2000/svg">
<g clip-path="url(#clip0)">
<path d="M40 1.52588e-05H0V40H40V1.52588e-05Z" fill="#50ABF1"/>
<path d="M6.00159 29.4335C8.53655 31.0592 11.5436 32 14.767 32C23.8227 32 31.1636 24.5764 31.1636 15.4203C31.1636 15.1917 31.1588 14.9648 31.1501 14.7386C31.4777 14.4779 33.5035 12.8361 34 11.7806C34 11.7806 32.3549 12.472 30.7448 12.6348C30.7417 12.6348 30.7377 12.6356 30.7346 12.6356C30.7346 12.6356 30.7377 12.634 30.7432 12.63C30.8916 12.5298 32.9657 11.1021 33.2465 9.40103C33.2465 9.40103 32.0829 10.029 30.4537 10.5785C30.184 10.6691 29.9017 10.7581 29.6106 10.8407C28.5604 9.70739 27.0677 9.00002 25.4107 9.00002C22.2324 9.00002 19.657 11.6034 19.657 14.8147C19.657 15.2679 19.7086 15.709 19.8061 16.1325C19.362 16.114 12.5985 15.7306 7.9973 10.0963C7.9973 10.0963 5.24737 13.8924 9.63604 17.7958C9.63604 17.7958 8.30194 17.7421 7.15097 17.0467C7.15097 17.0467 6.72823 21.6455 11.6983 22.8214C11.6983 22.8214 10.7203 23.1959 9.16013 22.9289C9.16013 22.9289 10.0326 26.6447 14.4483 26.992C14.4483 26.992 10.9566 30.1815 6 29.4331L6.00159 29.4335Z" fill="white"/>
</g>
<defs>
<clipPath id="clip0">
<rect y="1.52588e-05" width="40" height="40" fill="white"/>
</clipPath>
</defs>
</svg>
